<svg width="475" height="475" viewBox="0 0 475 475" fill="none" xmlns="http://www.w3.org/2000/svg">
<path fill-rule="evenodd" clip-rule="evenodd" d="M369.268 236.024C378.647 225.296 380.162 209.787 373.039 197.445L338.798 138.122C331.675 125.78 317.49 119.339 303.513 122.099L165.243 149.404C155.82 151.265 147.659 157.106 142.856 165.427L101.961 236.279C96.013 246.584 96.013 259.281 101.961 269.586L140.801 336.879C146.75 347.185 157.742 353.533 169.638 353.533L251.428 353.533C261.033 353.533 270.171 349.384 276.493 342.151L369.268 236.024ZM296.162 177.911C293.227 174.931 289.413 173.882 285.848 173.775C282.327 173.677 278.575 174.451 274.841 175.696C267.683 178.071 259.325 182.572 250.568 188.371C242.34 186.24 233.698 186.29 225.496 188.518C217.294 190.746 209.813 195.074 203.793 201.075C197.772 207.077 193.419 214.544 191.163 222.742C188.906 230.939 188.824 239.584 190.926 247.822C184.88 256.601 180.336 264.989 177.927 272.193C176.655 276.045 175.864 279.896 175.971 283.489C176.086 287.118 177.162 290.979 180.132 293.958C184.639 298.468 191.032 298.61 196.314 297.605C201.844 296.556 208.121 293.932 214.638 290.312C218.573 288.106 222.397 285.711 226.099 283.134C238.126 286.179 250.858 284.592 261.771 278.686C271.389 273.435 278.966 265.104 283.287 255.03C287.608 244.957 288.422 233.723 285.599 223.131C288.16 219.395 290.427 215.766 292.356 212.306C296.002 205.831 298.66 199.587 299.736 194.072C300.767 188.825 300.669 182.438 296.162 177.911ZM267.656 196.607C266.874 196.02 266.074 195.451 265.256 194.917H265.265C270.511 191.858 275.17 189.643 279.046 188.362C281.962 187.384 284.07 187.072 285.448 187.117C285.872 187.106 286.294 187.175 286.692 187.321C286.799 187.499 287.235 188.54 286.657 191.502C285.955 195.051 284.034 199.889 280.726 205.786C278.93 208.997 276.779 212.422 274.307 215.997C267.434 225.693 258.65 236.09 248.558 246.301C238.476 256.512 228.126 265.336 218.453 272.211C214.852 274.693 211.402 276.845 208.166 278.642C202.262 281.924 197.398 283.819 193.824 284.503C190.819 285.064 189.761 284.61 189.556 284.503C189.485 284.361 189.334 283.97 189.307 283.08C189.254 281.622 189.592 279.416 190.588 276.418C191.895 272.487 194.162 267.755 197.345 262.454C197.962 263.398 198.611 264.321 199.292 265.22L202.591 269.312C213.918 262.578 227.415 251.896 240.663 238.492C254.133 224.848 264.936 211.114 271.693 199.685L267.683 196.625L267.656 196.607Z" fill="#2CFED2"/>
</svg>
